<mxfile host="app.diagrams.net" agent="Mozilla/5.0 (Windows NT 10.0; Win64; x64) AppleWebKit/537.36 (KHTML, like Gecko) Chrome/138.0.0.0 Safari/537.36" version="28.0.4">
  <diagram name="페이지-1" id="0FGQd9XbgFzsJlSy_HBO">
    <mxGraphModel dx="1426" dy="743" grid="1" gridSize="10" guides="1" tooltips="1" connect="1" arrows="1" fold="1" page="1" pageScale="1" pageWidth="827" pageHeight="1169" math="0" shadow="0">
      <root>
        <mxCell id="0" />
        <mxCell id="1" parent="0" />
        <mxCell id="QxpJwlsXU4-NuK8-nz8U-1" value="" style="endArrow=classic;html=1;rounded=0;exitX=1;exitY=0;exitDx=0;exitDy=0;entryX=0;entryY=0.25;entryDx=0;entryDy=0;" edge="1" parent="1" source="QxpJwlsXU4-NuK8-nz8U-17" target="QxpJwlsXU4-NuK8-nz8U-9">
          <mxGeometry width="50" height="50" relative="1" as="geometry">
            <mxPoint x="249" y="283" as="sourcePoint" />
            <mxPoint x="769" y="383" as="targetPoint" />
          </mxGeometry>
        </mxCell>
        <mxCell id="QxpJwlsXU4-NuK8-nz8U-2" value="" style="endArrow=block;html=1;rounded=0;entryX=0.484;entryY=0.995;entryDx=0;entryDy=0;exitX=0.5;exitY=0;exitDx=0;exitDy=0;dashed=1;endFill=0;entryPerimeter=0;" edge="1" parent="1" source="QxpJwlsXU4-NuK8-nz8U-3" target="QxpJwlsXU4-NuK8-nz8U-9">
          <mxGeometry width="50" height="50" relative="1" as="geometry">
            <mxPoint x="339" y="293" as="sourcePoint" />
            <mxPoint x="624" y="413" as="targetPoint" />
          </mxGeometry>
        </mxCell>
        <mxCell id="QxpJwlsXU4-NuK8-nz8U-4" style="edgeStyle=orthogonalEdgeStyle;rounded=0;orthogonalLoop=1;jettySize=auto;html=1;entryX=0.5;entryY=0;entryDx=0;entryDy=0;" edge="1" parent="1" source="QxpJwlsXU4-NuK8-nz8U-5" target="QxpJwlsXU4-NuK8-nz8U-22">
          <mxGeometry relative="1" as="geometry" />
        </mxCell>
        <mxCell id="QxpJwlsXU4-NuK8-nz8U-7" value="" style="group" vertex="1" connectable="0" parent="1">
          <mxGeometry x="589" y="58.37" width="341" height="164.63" as="geometry" />
        </mxCell>
        <mxCell id="QxpJwlsXU4-NuK8-nz8U-8" value="&amp;lt;&amp;lt;interface&amp;gt;&amp;gt;&amp;nbsp;&lt;div&gt;GameReviewService&lt;/div&gt;" style="swimlane;fontStyle=0;childLayout=stackLayout;horizontal=1;startSize=30;horizontalStack=0;resizeParent=1;resizeParentMax=0;resizeLast=0;collapsible=1;marginBottom=0;whiteSpace=wrap;html=1;container=0;" vertex="1" parent="QxpJwlsXU4-NuK8-nz8U-7">
          <mxGeometry width="341.00000000000006" height="50" as="geometry">
            <mxRectangle x="100" y="80" width="140" height="30" as="alternateBounds" />
          </mxGeometry>
        </mxCell>
        <mxCell id="QxpJwlsXU4-NuK8-nz8U-9" value="&lt;div&gt;&amp;nbsp; + reviewSave(vo: GameReviewVO): boolean&lt;/div&gt;&lt;div&gt;&amp;nbsp; + reviewDelete(userName: String, gameId: Long): int&lt;/div&gt;&lt;div&gt;&amp;nbsp; + reviewListByGameId(gameId: Long): List&amp;lt;GameReviewVO&amp;gt;&lt;/div&gt;" style="rounded=0;whiteSpace=wrap;html=1;align=left;container=0;" vertex="1" parent="QxpJwlsXU4-NuK8-nz8U-7">
          <mxGeometry y="50" width="341.00000000000006" height="80" as="geometry" />
        </mxCell>
        <mxCell id="QxpJwlsXU4-NuK8-nz8U-10" value="" style="endArrow=classic;html=1;rounded=0;exitX=1;exitY=0.5;exitDx=0;exitDy=0;entryX=0;entryY=0.5;entryDx=0;entryDy=0;" edge="1" parent="1" source="QxpJwlsXU4-NuK8-nz8U-14" target="QxpJwlsXU4-NuK8-nz8U-23">
          <mxGeometry width="50" height="50" relative="1" as="geometry">
            <mxPoint x="-111" y="829" as="sourcePoint" />
            <mxPoint x="469" y="563" as="targetPoint" />
          </mxGeometry>
        </mxCell>
        <mxCell id="QxpJwlsXU4-NuK8-nz8U-11" value="" style="group" vertex="1" connectable="0" parent="1">
          <mxGeometry x="60" y="480" width="250" height="271" as="geometry" />
        </mxCell>
        <mxCell id="QxpJwlsXU4-NuK8-nz8U-12" value="" style="group" vertex="1" connectable="0" parent="QxpJwlsXU4-NuK8-nz8U-11">
          <mxGeometry width="250" height="250.1538461538462" as="geometry" />
        </mxCell>
        <mxCell id="QxpJwlsXU4-NuK8-nz8U-13" value="GameReviewVO" style="swimlane;fontStyle=0;childLayout=stackLayout;horizontal=1;startSize=30;horizontalStack=0;resizeParent=1;resizeParentMax=0;resizeLast=0;collapsible=1;marginBottom=0;whiteSpace=wrap;html=1;container=0;" vertex="1" parent="QxpJwlsXU4-NuK8-nz8U-12">
          <mxGeometry x="10" y="-1.42" width="195.31" height="161.42" as="geometry">
            <mxRectangle x="100" y="80" width="140" height="30" as="alternateBounds" />
          </mxGeometry>
        </mxCell>
        <mxCell id="QxpJwlsXU4-NuK8-nz8U-14" value="&lt;div&gt;&amp;nbsp; - Long reviewId&lt;/div&gt;&lt;div&gt;&amp;nbsp; - String userName&lt;/div&gt;&lt;div&gt;&amp;nbsp; - Long gameId&lt;/div&gt;&lt;div&gt;&amp;nbsp; - String title&lt;/div&gt;&lt;div&gt;&amp;nbsp; - Double rating&lt;/div&gt;&lt;div&gt;&amp;nbsp; - String content&lt;/div&gt;&lt;div&gt;&amp;nbsp; - Timestamp createdAt&lt;/div&gt;&lt;div&gt;&amp;nbsp; - Timestamp updatedAt&lt;/div&gt;" style="text;strokeColor=none;fillColor=none;align=left;verticalAlign=middle;spacingLeft=4;spacingRight=4;overflow=hidden;points=[[0,0.5],[1,0.5]];portConstraint=eastwest;rotatable=0;whiteSpace=wrap;html=1;container=0;" vertex="1" parent="QxpJwlsXU4-NuK8-nz8U-12">
          <mxGeometry x="10" y="29.85" width="195.31" height="130.15" as="geometry" />
        </mxCell>
        <mxCell id="QxpJwlsXU4-NuK8-nz8U-15" value="" style="rounded=0;whiteSpace=wrap;html=1;align=left;container=0;" vertex="1" parent="QxpJwlsXU4-NuK8-nz8U-12">
          <mxGeometry x="10" y="159.9963076923077" width="195.31" height="20.846153846153847" as="geometry" />
        </mxCell>
        <mxCell id="QxpJwlsXU4-NuK8-nz8U-16" value="" style="group" vertex="1" connectable="0" parent="1">
          <mxGeometry x="90" y="40" width="360" height="170" as="geometry" />
        </mxCell>
        <mxCell id="QxpJwlsXU4-NuK8-nz8U-17" value="&lt;div&gt;&amp;nbsp; + reviewSave(vo: GameReviewVO): ResponseEntity&amp;lt;?&amp;gt;&lt;/div&gt;&lt;div&gt;&amp;nbsp; + reviewDelete(userName: String, gameId: Long): ResponseEntity&amp;lt;?&amp;gt;&lt;/div&gt;&lt;div&gt;&amp;nbsp; + getReviewList(gameId: Long): ResponseEntity&amp;lt;?&amp;gt;&lt;/div&gt;" style="rounded=0;whiteSpace=wrap;html=1;align=left;container=0;" vertex="1" parent="QxpJwlsXU4-NuK8-nz8U-16">
          <mxGeometry y="88.06" width="360" height="81.94" as="geometry" />
        </mxCell>
        <mxCell id="QxpJwlsXU4-NuK8-nz8U-18" value="GameReviewController" style="swimlane;fontStyle=0;childLayout=stackLayout;horizontal=1;startSize=30;horizontalStack=0;resizeParent=1;resizeParentMax=0;resizeLast=0;collapsible=1;marginBottom=0;whiteSpace=wrap;html=1;container=0;" vertex="1" parent="QxpJwlsXU4-NuK8-nz8U-16">
          <mxGeometry width="360" height="88.06" as="geometry">
            <mxRectangle x="100" y="80" width="140" height="30" as="alternateBounds" />
          </mxGeometry>
        </mxCell>
        <mxCell id="QxpJwlsXU4-NuK8-nz8U-19" value="&amp;nbsp; - gameReviewService: GameReviewService" style="text;strokeColor=none;fillColor=none;align=left;verticalAlign=middle;spacingLeft=4;spacingRight=4;overflow=hidden;points=[[0,0.5],[1,0.5]];portConstraint=eastwest;rotatable=0;whiteSpace=wrap;html=1;container=0;" vertex="1" parent="QxpJwlsXU4-NuK8-nz8U-16">
          <mxGeometry y="30" width="360" height="58.06" as="geometry" />
        </mxCell>
        <mxCell id="QxpJwlsXU4-NuK8-nz8U-20" style="rounded=0;orthogonalLoop=1;jettySize=auto;html=1;edgeStyle=orthogonalEdgeStyle;" edge="1" parent="1" source="QxpJwlsXU4-NuK8-nz8U-17" target="QxpJwlsXU4-NuK8-nz8U-13">
          <mxGeometry relative="1" as="geometry" />
        </mxCell>
        <mxCell id="QxpJwlsXU4-NuK8-nz8U-32" value="" style="group" vertex="1" connectable="0" parent="1">
          <mxGeometry x="580" y="263" width="346" height="160" as="geometry" />
        </mxCell>
        <mxCell id="QxpJwlsXU4-NuK8-nz8U-3" value="GameReviewServiceImpl" style="swimlane;fontStyle=0;childLayout=stackLayout;horizontal=1;startSize=30;horizontalStack=0;resizeParent=1;resizeParentMax=0;resizeLast=0;collapsible=1;marginBottom=0;whiteSpace=wrap;html=1;container=0;" vertex="1" parent="QxpJwlsXU4-NuK8-nz8U-32">
          <mxGeometry width="345.99999999999994" height="88.06451612903226" as="geometry">
            <mxRectangle x="100" y="80" width="140" height="30" as="alternateBounds" />
          </mxGeometry>
        </mxCell>
        <mxCell id="QxpJwlsXU4-NuK8-nz8U-5" value="&lt;div&gt;&amp;nbsp; + reviewSave(vo: GameReviewVO): boolean&lt;/div&gt;&lt;div&gt;&amp;nbsp; + reviewDelete(userName: String, gameId: Long): int&lt;/div&gt;&lt;div&gt;&amp;nbsp; + reviewListByGameId(gameId: Long): List&amp;lt;GameReviewVO&amp;gt;&lt;/div&gt;" style="rounded=0;whiteSpace=wrap;html=1;align=left;container=0;" vertex="1" parent="QxpJwlsXU4-NuK8-nz8U-32">
          <mxGeometry y="83.87" width="345.99999999999994" height="76.13" as="geometry" />
        </mxCell>
        <mxCell id="QxpJwlsXU4-NuK8-nz8U-6" value="&amp;nbsp; - gameReivewMapper: GameReivewMapper" style="text;strokeColor=none;fillColor=none;align=left;verticalAlign=middle;spacingLeft=4;spacingRight=4;overflow=hidden;points=[[0,0.5],[1,0.5]];portConstraint=eastwest;rotatable=0;whiteSpace=wrap;html=1;container=0;" vertex="1" parent="QxpJwlsXU4-NuK8-nz8U-32">
          <mxGeometry y="30" width="345.99999999999994" height="58.06451612903226" as="geometry" />
        </mxCell>
        <mxCell id="QxpJwlsXU4-NuK8-nz8U-33" value="" style="group" vertex="1" connectable="0" parent="1">
          <mxGeometry x="450" y="497" width="351" height="143" as="geometry" />
        </mxCell>
        <mxCell id="QxpJwlsXU4-NuK8-nz8U-24" value="" style="rounded=0;whiteSpace=wrap;html=1;align=left;container=0;" vertex="1" parent="QxpJwlsXU4-NuK8-nz8U-33">
          <mxGeometry y="123" width="350.99999999999994" height="20" as="geometry" />
        </mxCell>
        <mxCell id="QxpJwlsXU4-NuK8-nz8U-22" value="&lt;div&gt;&amp;lt;&amp;lt;interface&amp;gt;&amp;gt;&lt;/div&gt;GameReivewMapper" style="swimlane;fontStyle=0;childLayout=stackLayout;horizontal=1;startSize=30;horizontalStack=0;resizeParent=1;resizeParentMax=0;resizeLast=0;collapsible=1;marginBottom=0;whiteSpace=wrap;html=1;container=0;" vertex="1" parent="QxpJwlsXU4-NuK8-nz8U-33">
          <mxGeometry width="351" height="123" as="geometry">
            <mxRectangle x="100" y="80" width="140" height="30" as="alternateBounds" />
          </mxGeometry>
        </mxCell>
        <mxCell id="QxpJwlsXU4-NuK8-nz8U-23" value="&lt;div&gt;&amp;nbsp; + countReview(vo: GameReviewVO): int&lt;/div&gt;&lt;div&gt;&amp;nbsp; + reviewSave(vo: GameReviewVO): int&lt;/div&gt;&lt;div&gt;&amp;nbsp; + reviewUpdate(vo: GameReviewVO): int&lt;/div&gt;&lt;div&gt;&amp;nbsp; + deleteReview(userName: String, gameId: Long): int&lt;/div&gt;&lt;div&gt;&amp;nbsp; + reviewListByGameId(gameId: Long): List&amp;lt;GameReviewVO&amp;gt;&lt;/div&gt;" style="text;strokeColor=none;fillColor=none;align=left;verticalAlign=middle;spacingLeft=4;spacingRight=4;overflow=hidden;points=[[0,0.5],[1,0.5]];portConstraint=eastwest;rotatable=0;whiteSpace=wrap;html=1;container=0;" vertex="1" parent="QxpJwlsXU4-NuK8-nz8U-33">
          <mxGeometry y="28.639999999999986" width="351" height="101.36" as="geometry" />
        </mxCell>
      </root>
    </mxGraphModel>
  </diagram>
</mxfile>
